<?xml version="1.0" encoding="utf-8"?>
<!-- Generator: Adobe Illustrator 22.0.1, SVG Export Plug-In . SVG Version: 6.00 Build 0)  -->
<svg version="1.1" xmlns="http://www.w3.org/2000/svg" xmlns:xlink="http://www.w3.org/1999/xlink" x="0px" y="0px"
	 viewBox="0 0 396.5 657.5" style="enable-background:new 0 0 396.5 657.5;" xml:space="preserve">
<style type="text/css">
	.st0{opacity:0.3;fill:none;stroke:#000000;stroke-width:7;stroke-miterlimit:10;}
	.st1{display:none;fill:none;stroke:#9B9C9E;stroke-miterlimit:10;}
	.st2{fill:#ADD1C6;}
	.st3{fill:none;stroke:#ADD1C6;stroke-miterlimit:10;}
	.st4{fill:none;stroke:#403F41;stroke-miterlimit:10;}
	.st5{fill:none;stroke:#F0D3BF;stroke-width:2;stroke-miterlimit:10;}
	.st6{opacity:0.49;fill:#C4CBE4;}
	.st7{display:none;fill:none;stroke:#868788;stroke-miterlimit:10;}
	.st8{fill:none;stroke:#000000;stroke-miterlimit:10;}
	.st9{fill:#DDE8C7;}
	.st10{opacity:0.76;fill:none;stroke:#6F7072;stroke-miterlimit:10;}
	.st11{opacity:0.71;fill:none;stroke:#6F7072;stroke-miterlimit:10;}
	.st12{fill:#F0D3BF;}
	.st13{fill:#C4CBE4;}
	.st14{opacity:0.76;fill:none;stroke:#6F7072;stroke-width:4;stroke-miterlimit:10;}
	.st15{fill:#F6EBAF;}
	.st16{display:none;}
	.st17{fill:#F8EBB3;}
	.st18{fill:#ADCCE3;}
	.st19{fill:#F6E086;}
	.st20{fill:none;stroke:#403F41;stroke-width:3;stroke-miterlimit:10;}
	.st21{fill:#A5C5E6;}
	.st22{fill:none;stroke:#92AECF;stroke-width:2;stroke-miterlimit:10;}
	.st23{fill:none;stroke:#DAC66F;stroke-width:3;stroke-miterlimit:10;}
	.st24{fill:none;stroke:#F6E086;stroke-width:3;stroke-miterlimit:10;}
	.st25{opacity:0.89;fill:#CFE1C8;}
	.st26{display:none;fill:#ADCCE3;}
	.st27{display:inline;fill:#A5C5E6;}
	.st28{display:inline;fill:none;stroke:#92AECF;stroke-width:2;stroke-miterlimit:10;}
	.st29{fill:#B2D0A6;}
	.st30{fill:none;stroke:#96AB8E;stroke-width:3;stroke-miterlimit:10;}
	.st31{fill:none;stroke:#96AB8E;stroke-width:2;stroke-miterlimit:10;}
	.st32{display:none;fill:none;stroke:#92AECF;stroke-width:2;stroke-miterlimit:10;}
	.st33{display:none;fill:none;stroke:#F6E086;stroke-width:3;stroke-miterlimit:10;}
	.st34{opacity:0.89;fill:#ECCBD0;}
	.st35{fill:none;stroke:#A27070;stroke-width:3;stroke-miterlimit:10;}
	.st36{fill:#CC7272;}
	.st37{fill:none;stroke:#A27070;stroke-width:2;stroke-miterlimit:10;}
	.st38{opacity:0.5;fill:none;stroke:#FFFFFF;stroke-miterlimit:10;}
	.st39{display:none;opacity:0.5;fill:none;stroke:#FFFFFF;stroke-width:2;stroke-miterlimit:10;}
	.st40{fill:#C6DCF0;}
	.st41{fill:none;stroke:#A8BAC7;stroke-width:3;stroke-miterlimit:10;}
	.st42{fill:none;stroke:#A8BAC7;stroke-width:2;stroke-miterlimit:10;}
	.st43{opacity:0.5;fill:#FFFFFF;}
	.st44{opacity:0.75;fill:#FFFFFF;}
	.st45{opacity:0.44;fill:#FEFEFE;}
	.st46{opacity:0.64;fill:#FEFEFE;}
	.st47{display:none;fill:#F6E086;stroke:#C4B16D;stroke-width:4;stroke-miterlimit:10;}
	.st48{fill:#FFFFFF;}
	.st49{opacity:0.5;fill:#B2D0A6;}
	.st50{opacity:0.75;fill:#B2D0A6;}
	.st51{opacity:0.5;fill:#F8EBB3;}
	.st52{opacity:0.75;fill:#F8EBB3;}
	.st53{opacity:0.44;fill:#B2D0A6;}
	.st54{opacity:0.64;fill:#B2D0A6;}
	.st55{opacity:0.44;fill:#A5C5E6;}
	.st56{opacity:0.64;fill:#A5C5E6;}
	.st57{opacity:0.5;fill:#CC7272;}
	.st58{opacity:0.75;fill:#CC7272;}
	.st59{opacity:0.5;fill:#A5C5E6;}
	.st60{opacity:0.75;fill:#A5C5E6;}
	.st61{opacity:0.44;fill:#CC7272;}
	.st62{opacity:0.64;fill:#CC7272;}
	.st63{opacity:0.44;fill:#F8EBB3;}
	.st64{opacity:0.64;fill:#F8EBB3;}
</style>
<g id="Capa_12">
</g>
<g id="Capa_1">
</g>
<g id="Capa_3">
</g>
<g id="Capa_2" class="st16">
</g>
<g id="Capa_4">
</g>
<g id="Capa_5">
</g>
<g id="Capa_6">
</g>
<g id="Capa_7">
</g>
<g id="Capa_8">
	<g>
		<path class="st49" d="M170.3,518.6l-27.1-40.3c-1.6-2.4-1-5.8,1.4-7.4l15.7-10.6c2.4-1.6,5.8-1,7.4,1.4l27.1,40.3
			c1.6,2.4,1,5.8-1.4,7.4l-15.7,10.6C175.2,521.7,171.9,521,170.3,518.6z"/>
		<path class="st50" d="M174.3,516.9l-28-41.6c-1.4-2.1-0.8-4.9,1.2-6.3l13.3-9c2.1-1.4,4.9-0.8,6.3,1.2l28,41.6
			c1.4,2.1,0.8,4.9-1.2,6.3l-13.3,9C178.5,519.5,175.7,518.9,174.3,516.9z"/>
	</g>
	<g>
		<path class="st51" d="M102,158l-18.8-28c-2.2-3.3-1.4-7.9,2-10.1l27.7-18.7c3.3-2.2,7.9-1.4,10.1,2l18.8,28
			c2.2,3.3,1.4,7.9-2,10.1L112.1,160C108.7,162.3,104.2,161.4,102,158z"/>
		<path class="st52" d="M105.7,155.5l-18.8-28c-2.2-3.3-1.4-7.9,2-10.1l23.7-16c3.3-2.2,7.9-1.4,10.1,2l18.8,28
			c2.2,3.3,1.4,7.9-2,10.1l-23.7,16C112.5,159.8,107.9,158.9,105.7,155.5z"/>
	</g>
	<g>
		<path class="st53" d="M104.6,218.8c0,0,2.2-1.5,4.5-3.1c1.6-1,2.7-2.8,1.7-4.4c-0.7-1.1-3.6-5.9-3.6-5.9c-1.3-1.9-0.8-4.6,1.1-5.8
			l4.4-3c1.9-1.3,4.6-0.8,5.8,1.1l7.7,11.5l3,4.4c1.3,1.9,0.8,4.6-1.1,5.8l-4.4,3l-11.5,7.7c-1.9,1.3-4.6,0.8-5.8-1.1l-3-4.4
			C102.2,222.7,102.7,220.1,104.6,218.8z"/>
		<path class="st54" d="M107,218.6c0,0,2-1.4,4.1-2.8c1.4-1,2.4-2.6,1.5-4c-0.6-1-3.3-5.5-3.3-5.5c-1.2-1.8-0.7-4.2,1-5.4l4-2.7
			c1.8-1.2,4.2-0.7,5.4,1.1l7.1,10.6l2.7,4.1c1.2,1.8,0.7,4.2-1,5.4l-4,2.7l-10.5,7.1c-1.8,1.2-4.2,0.7-5.4-1.1l-2.7-4.1
			C104.8,222.2,105.2,219.8,107,218.6z"/>
	</g>
	<g>
		<path class="st51" d="M242.1,217.2l-7.3-10.8c-2.2-3.3-1.4-7.9,2-10.1l10.7-7.2c3.3-2.2,7.9-1.4,10.1,2l7.3,10.8
			c2.2,3.3,1.4,7.9-2,10.1l-10.7,7.2C248.9,221.4,244.3,220.5,242.1,217.2z"/>
		<path class="st52" d="M244.2,215.7l-7.3-10.8c-2.2-3.3-1.4-7.9,2-10.1l8.4-5.7c3.3-2.2,7.9-1.4,10.1,2l7.3,10.8
			c2.2,3.3,1.4,7.9-2,10.1l-8.4,5.7C251,220,246.5,219.1,244.2,215.7z"/>
	</g>
	<g>
		<path class="st51" d="M62.1,484.4l-22.6-33.5c-2.2-3.3-1.4-7.9,2-10.1l33.2-22.4c3.3-2.2,7.9-1.4,10.1,2l22.6,33.5
			c2.2,3.3,1.4,7.9-2,10.1l-33.2,22.4C68.8,488.6,64.3,487.8,62.1,484.4z"/>
		<path class="st52" d="M66.3,481.6L43.7,448c-2.2-3.3-1.4-7.9,2-10.1l28.7-19.3c3.3-2.2,7.9-1.4,10.1,2l22.6,33.5
			c2.2,3.3,1.4,7.9-2,10.1l-28.7,19.3C73.1,485.8,68.5,484.9,66.3,481.6z"/>
	</g>
	<g>
		<path class="st63" d="M213.9,359.4c0,0,2.8-2,5.8-4c2-1.3,3.4-3.6,2.1-5.6c-0.9-1.4-4.6-7.6-4.6-7.6c-1.7-2.5-1-5.8,1.5-7.5
			l5.7-3.8c2.5-1.7,5.8-1,7.5,1.5l9.9,14.8l3.8,5.7c1.7,2.5,1,5.8-1.5,7.5l-5.7,3.8l-14.8,9.9c-2.5,1.7-5.8,1-7.5-1.5l-3.8-5.7
			C210.7,364.4,211.4,361,213.9,359.4z"/>
		<path class="st64" d="M216.9,359.1c0,0,2.5-1.8,5.3-3.6c1.8-1.2,3.1-3.3,1.9-5.2c-0.8-1.3-4.2-7-4.2-7c-1.5-2.3-0.9-5.4,1.3-6.9
			l5.2-3.5c2.3-1.5,5.3-0.9,6.9,1.4l9.1,13.6l3.5,5.2c1.5,2.3,0.9,5.4-1.3,6.9l-5.2,3.5l-13.5,9.1c-2.3,1.5-5.3,0.9-6.9-1.4
			l-3.5-5.2C214,363.7,214.6,360.6,216.9,359.1z"/>
	</g>
	<g>
		<path class="st55" d="M191.1,136.2c0,0,3.7-2.6,7.8-5.3c2.7-1.8,4.6-4.8,2.9-7.5c-1.2-1.9-6.1-10.2-6.1-10.2
			c-2.2-3.3-1.3-7.8,2-10l7.6-5.1c3.3-2.2,7.8-1.3,10,2l13.3,19.8l5.1,7.6c2.2,3.3,1.3,7.8-2,10l-7.6,5.1l-19.8,13.3
			c-3.3,2.2-7.8,1.3-10-2l-5.1-7.6C186.9,142.9,187.8,138.4,191.1,136.2z"/>
		<path class="st56" d="M195.1,135.8c0,0,3.4-2.4,7.1-4.9c2.4-1.6,4.2-4.4,2.6-6.9c-1.1-1.8-5.6-9.4-5.6-9.4c-2-3-1.2-7.2,1.8-9.2
			l6.9-4.7c3-2,7.1-1.2,9.2,1.9l12.2,18.2l4.7,7c2,3,1.2,7.2-1.8,9.2l-6.9,4.7l-18,12.1c-3,2-7.1,1.2-9.2-1.9l-4.7-7
			C191.3,142,192.1,137.9,195.1,135.8z"/>
	</g>
	<g>
		<path class="st57" d="M241.4,448.8l-12-17.8c-1.6-2.4-1-5.8,1.4-7.4l4.5-3c2.4-1.6,5.8-1,7.4,1.4l12,17.8c1.6,2.4,1,5.8-1.4,7.4
			l-4.5,3C246.4,451.9,243,451.2,241.4,448.8z"/>
		<path class="st58" d="M243.8,448.2L230.9,429c-1.4-2.1-0.8-4.9,1.2-6.3l3.8-2.5c2.1-1.4,4.9-0.8,6.3,1.2l12.9,19.1
			c1.4,2.1,0.8,4.9-1.2,6.3l-3.8,2.5C248,450.8,245.2,450.2,243.8,448.2z"/>
	</g>
	<g>
		<path class="st57" d="M196.9,281.4l-27.4-40.7c-1.6-2.4-1-5.8,1.4-7.4l15.9-10.7c2.4-1.6,5.8-1,7.4,1.4l27.4,40.7
			c1.6,2.4,1,5.8-1.4,7.4l-15.9,10.7C201.9,284.4,198.6,283.8,196.9,281.4z"/>
		<path class="st58" d="M201,279.6l-28.3-42c-1.4-2.1-0.8-4.9,1.2-6.3l13.5-9.1c2.1-1.4,4.9-0.8,6.3,1.2l28.3,42
			c1.4,2.1,0.8,4.9-1.2,6.3l-13.5,9.1C205.2,282.2,202.4,281.7,201,279.6z"/>
	</g>
	<g>
		<path class="st59" d="M102.8,336.3l-15.4-22.8c-2.2-3.3-1.4-7.9,2-10.1l22.6-15.2c3.3-2.2,7.9-1.4,10.1,2l15.4,22.8
			c2.2,3.3,1.4,7.9-2,10.1l-22.6,15.2C109.6,340.5,105,339.7,102.8,336.3z"/>
		<path class="st60" d="M106,334.2l-15.4-22.8c-2.2-3.3-1.4-7.9,2-10.1l19.1-12.9c3.3-2.2,7.9-1.4,10.1,2l15.4,22.8
			c2.2,3.3,1.4,7.9-2,10.1l-19.1,12.9C112.8,338.4,108.3,337.5,106,334.2z"/>
	</g>
	<g>
		<path class="st57" d="M134.2,412.9l-8.9-13.3c-2.2-3.3-1.4-7.9,2-10.1l13.1-8.8c3.3-2.2,7.9-1.4,10.1,2l8.9,13.3
			c2.2,3.3,1.4,7.9-2,10.1l-13.1,8.8C141,417.2,136.4,416.3,134.2,412.9z"/>
		<path class="st58" d="M136.6,411.4l-8.9-13.3c-2.2-3.3-1.4-7.9,2-10.1l10.6-7.1c3.3-2.2,7.9-1.4,10.1,2l8.9,13.3
			c2.2,3.3,1.4,7.9-2,10.1l-10.6,7.1C143.3,415.6,138.8,414.7,136.6,411.4z"/>
	</g>
	<polygon class="st55" points="320.8,495.6 320.8,495.6 315.7,488 303.7,470.1 316.7,489.4 	"/>
	<polygon class="st56" points="302.1,467.7 302.1,467.7 303.7,470.1 	"/>
	<path class="st56" d="M319.4,509l-9,6.1l-21.3,14.3c0.5-0.2,0.9-0.4,1.4-0.7l21.5-14.4l8.2-5.5c0.2-0.1,0.4-0.3,0.6-0.5v-0.4
		C320.4,508.3,319.9,508.7,319.4,509z"/>
	<path class="st59" d="M308.4,341.5l12.4,18.5v-0.5l-12.2-18.1c-2.2-3.3-6.8-4.2-10.1-2l-0.2,0.1
		C301.6,337.3,306.1,338.2,308.4,341.5z"/>
	<polygon class="st60" points="302.6,387.3 302.6,387.3 320.8,375.1 320.8,375.1 	"/>
	<polygon class="st60" points="298.3,339.5 279.1,352.4 279.1,352.4 298.3,339.5 	"/>
	<path class="st49" d="M320.8,116.3V116L304,91c-0.3-0.4-0.6-0.8-1-1.1c0.1,0.2,0.3,0.3,0.4,0.5L320.8,116.3z"/>
	<polygon class="st50" points="314.9,137.5 314.9,137.5 320.8,133.5 320.8,133.5 	"/>
	<path class="st50" d="M303,89.9c-1.5-1.6-4-2-5.9-0.7L287,96c0,0,0,0,0,0l9.5-6.4C298.5,88.2,301.2,88.4,303,89.9z"/>
	<g>
		<path class="st49" d="M304.3,149.8l-27.1-40.3c-1.6-2.4-1-5.8,1.4-7.4l15.7-10.6c2.4-1.6,5.8-1,7.4,1.4l27.1,40.3
			c1.6,2.4,1,5.8-1.4,7.4l-15.7,10.6C309.3,152.9,305.9,152.3,304.3,149.8z"/>
		<path class="st50" d="M308.3,148.1l-28-41.6c-1.4-2.1-0.8-4.9,1.2-6.3l13.3-9c2.1-1.4,4.9-0.8,6.3,1.2l28,41.6
			c1.4,2.1,0.8,4.9-1.2,6.3l-13.3,9C312.6,150.7,309.7,150.2,308.3,148.1z"/>
	</g>
	<g>
		<path class="st61" d="M300.5,274.8c0,0,4.4-3.1,9.3-6.4c3.2-2.2,5.5-5.8,3.4-9c-1.4-2.3-7.3-12.2-7.3-12.2c-2.7-4-1.6-9.4,2.4-12
			l9.1-6.1c4-2.7,9.4-1.6,12,2.4l15.9,23.7l6.1,9.1c2.7,4,1.6,9.4-2.4,12l-9.1,6.1l-23.7,15.9c-4,2.7-9.4,1.6-12-2.4l-6.1-9.1
			C295.4,282.8,296.5,277.4,300.5,274.8z"/>
		<path class="st62" d="M305.3,274.4c0,0,4-2.9,8.5-5.8c2.9-2,5-5.3,3.1-8.3c-1.3-2.1-6.7-11.2-6.7-11.2c-2.4-3.6-1.5-8.6,2.1-11
			l8.3-5.6c3.6-2.4,8.6-1.4,11,2.2l14.6,21.8l5.6,8.4c2.4,3.6,1.5,8.6-2.1,11l-8.3,5.6L319.8,296c-3.6,2.4-8.6,1.4-11-2.2l-5.6-8.4
			C300.7,281.8,301.7,276.8,305.3,274.4z"/>
	</g>
	<g>
		<path class="st59" d="M311.1,398.2l-15.4-22.8c-2.2-3.3-1.4-7.9,2-10.1l22.6-15.2c3.3-2.2,7.9-1.4,10.1,2l15.4,22.8
			c2.2,3.3,1.4,7.9-2,10.1l-22.6,15.2C317.9,402.4,313.4,401.5,311.1,398.2z"/>
		<path class="st60" d="M314.4,396L299,373.2c-2.2-3.3-1.4-7.9,2-10.1l19.1-12.9c3.3-2.2,7.9-1.4,10.1,2l15.4,22.8
			c2.2,3.3,1.4,7.9-2,10.1L324.5,398C321.2,400.2,316.6,399.3,314.4,396z"/>
	</g>
	<g>
		<path class="st55" d="M315.4,483.9c0,0,4-2.8,8.4-5.8c2.9-1.9,4.9-5.2,3.1-8.1c-1.3-2.1-6.6-11-6.6-11c-2.4-3.6-1.4-8.5,2.1-10.8
			l8.2-5.5c3.6-2.4,8.5-1.4,10.8,2.1l14.4,21.4l5.5,8.2c2.4,3.6,1.4,8.5-2.1,10.8l-8.2,5.5l-21.4,14.4c-3.6,2.4-8.5,1.4-10.8-2.1
			l-5.5-8.2C310.8,491.2,311.8,486.3,315.4,483.9z"/>
		<path class="st56" d="M319.8,483.6c0,0,3.6-2.6,7.7-5.3c2.6-1.8,4.5-4.8,2.8-7.5c-1.2-1.9-6.1-10.1-6.1-10.1
			c-2.2-3.3-1.4-7.8,1.9-10l7.5-5c3.3-2.2,7.7-1.3,9.9,2l13.2,19.7l5.1,7.6c2.2,3.3,1.4,7.8-1.9,10l-7.5,5l-19.5,13.1
			c-3.3,2.2-7.7,1.3-9.9-2l-5.1-7.6C315.6,490.3,316.5,485.8,319.8,483.6z"/>
	</g>
	<g>
		<path class="st55" d="M26.4,83.6c0,0,3.7-2.6,7.8-5.3c2.7-1.8,4.6-4.8,2.9-7.5c-1.2-1.9-6.1-10.2-6.1-10.2c-2.2-3.3-1.3-7.8,2-10
			l7.6-5.1c3.3-2.2,7.8-1.3,10,2l13.3,19.8l5.1,7.6c2.2,3.3,1.3,7.8-2,10l-7.6,5.1l-19.8,13.3c-3.3,2.2-7.8,1.3-10-2l-5.1-7.6
			C22.2,90.4,23.1,85.8,26.4,83.6z"/>
		<path class="st56" d="M30.5,83.3c0,0,3.4-2.4,7.1-4.9c2.4-1.6,4.2-4.4,2.6-6.9c-1.1-1.8-5.6-9.4-5.6-9.4c-2-3-1.2-7.2,1.8-9.2
			l6.9-4.7c3-2,7.1-1.2,9.2,1.9l12.2,18.2l4.7,7c2,3,1.2,7.2-1.8,9.2l-6.9,4.7l-18,12.1c-3,2-7.1,1.2-9.2-1.9l-4.7-7
			C26.7,89.5,27.4,85.3,30.5,83.3z"/>
	</g>
	<g>
		<path class="st51" d="M356.8,612.5l-27.1-40.3c-1.6-2.4-1-5.8,1.4-7.4l15.7-10.6c2.4-1.6,5.8-1,7.4,1.4l27.1,40.3
			c1.6,2.4,1,5.8-1.4,7.4L364.2,614C361.8,615.6,358.4,614.9,356.8,612.5z"/>
		<path class="st52" d="M360.8,610.8l-28-41.6c-1.4-2.1-0.8-4.9,1.2-6.3l13.3-9c2.1-1.4,4.9-0.8,6.3,1.2l28,41.6
			c1.4,2.1,0.8,4.9-1.2,6.3l-13.3,9C365.1,613.4,362.2,612.8,360.8,610.8z"/>
	</g>
	<g>
		<path class="st51" d="M36.4,252.2l-18.5-27.5c-2.2-3.3-1.4-7.9,2-10.1l27.2-18.3c3.3-2.2,7.9-1.4,10.1,2l18.5,27.5
			c2.2,3.3,1.4,7.9-2,10.1l-27.2,18.3C43.2,256.4,38.7,255.5,36.4,252.2z"/>
		<path class="st52" d="M40.1,249.7l-18.5-27.5c-2.2-3.3-1.4-7.9,2-10.1l23.3-15.7c3.3-2.2,7.9-1.4,10.1,2l18.5,27.5
			c2.2,3.3,1.4,7.9-2,10.1l-23.3,15.7C46.9,253.9,42.3,253,40.1,249.7z"/>
	</g>
	<g>
		<path class="st59" d="M251.9,63.8L236.6,41c-2.2-3.3-1.4-7.9,2-10.1l22.6-15.2c3.3-2.2,7.9-1.4,10.1,2l15.4,22.8
			c2.2,3.3,1.4,7.9-2,10.1l-22.6,15.2C258.7,68,254.2,67.1,251.9,63.8z"/>
		<path class="st60" d="M255.2,61.6l-15.4-22.8c-2.2-3.3-1.4-7.9,2-10.1l19.1-12.9c3.3-2.2,7.9-1.4,10.1,2l15.4,22.8
			c2.2,3.3,1.4,7.9-2,10.1l-19.1,12.9C262,65.8,257.4,64.9,255.2,61.6z"/>
	</g>
	<g>
		<path class="st61" d="M24.5,560c0,0,4.4-3.1,9.3-6.4c3.2-2.2,5.5-5.8,3.4-9c-1.4-2.3-7.3-12.2-7.3-12.2c-2.7-4-1.6-9.4,2.4-12
			l9.1-6.1c4-2.7,9.4-1.6,12,2.4l15.9,23.7l6.1,9.1c2.7,4,1.6,9.4-2.4,12l-9.1,6.1l-23.7,15.9c-4,2.7-9.4,1.6-12-2.4l-6.1-9.1
			C19.5,568.1,20.6,562.7,24.5,560z"/>
		<path class="st62" d="M29.4,559.6c0,0,4-2.9,8.5-5.8c2.9-2,5-5.3,3.1-8.3c-1.3-2.1-6.7-11.2-6.7-11.2c-2.4-3.6-1.5-8.6,2.1-11
			l8.3-5.6c3.6-2.4,8.6-1.4,11,2.2l14.6,21.8l5.6,8.4c2.4,3.6,1.5,8.6-2.1,11l-8.3,5.6l-21.6,14.5c-3.6,2.4-8.6,1.4-11-2.2l-5.6-8.4
			C24.8,567,25.8,562.1,29.4,559.6z"/>
	</g>
	<g>
		<path class="st49" d="M146.4,63.1l-12-17.8c-1.6-2.4-1-5.8,1.4-7.4l4.5-3c2.4-1.6,5.8-1,7.4,1.4l12,17.8c1.6,2.4,1,5.8-1.4,7.4
			l-4.5,3C151.4,66.2,148,65.5,146.4,63.1z"/>
		<path class="st50" d="M148.8,62.5l-12.9-19.1c-1.4-2.1-0.8-4.9,1.2-6.3l3.8-2.5c2.1-1.4,4.9-0.8,6.3,1.2l12.9,19.1
			c1.4,2.1,0.8,4.9-1.2,6.3l-3.8,2.5C153,65.1,150.2,64.5,148.8,62.5z"/>
	</g>
	<g>
		<path class="st49" d="M368.4,191.4l-12-17.8c-1.6-2.4-1-5.8,1.4-7.4l4.5-3c2.4-1.6,5.8-1,7.4,1.4l12,17.8c1.6,2.4,1,5.8-1.4,7.4
			l-4.5,3C373.4,194.5,370.1,193.8,368.4,191.4z"/>
		<path class="st50" d="M370.8,190.7l-12.9-19.1c-1.4-2.1-0.8-4.9,1.2-6.3l3.8-2.5c2.1-1.4,4.9-0.8,6.3,1.2l12.9,19.1
			c1.4,2.1,0.8,4.9-1.2,6.3l-3.8,2.5C375,193.4,372.2,192.8,370.8,190.7z"/>
	</g>
	<g>
		<path class="st57" d="M349.8,72.7l-22.6-33.5c-2.2-3.3-1.4-7.9,2-10.1l33.2-22.4c3.3-2.2,7.9-1.4,10.1,2l22.6,33.5
			c2.2,3.3,1.4,7.9-2,10.1l-33.2,22.4C356.6,76.9,352,76.1,349.8,72.7z"/>
		<path class="st58" d="M354,69.9l-22.6-33.5c-2.2-3.3-1.4-7.9,2-10.1l28.7-19.3c3.3-2.2,7.9-1.4,10.1,2l22.6,33.5
			c2.2,3.3,1.4,7.9-2,10.1l-28.7,19.3C360.8,74.1,356.3,73.2,354,69.9z"/>
	</g>
	<g>
		<path class="st51" d="M371.5,336.3l-7.3-10.8c-2.2-3.3-1.4-7.9,2-10.1l10.7-7.2c3.3-2.2,7.9-1.4,10.1,2l7.3,10.8
			c2.2,3.3,1.4,7.9-2,10.1l-10.7,7.2C378.3,340.5,373.8,339.7,371.5,336.3z"/>
		<path class="st52" d="M373.7,334.9l-7.3-10.8c-2.2-3.3-1.4-7.9,2-10.1l8.4-5.7c3.3-2.2,7.9-1.4,10.1,2l7.3,10.8
			c2.2,3.3,1.4,7.9-2,10.1l-8.4,5.7C380.4,339.1,375.9,338.2,373.7,334.9z"/>
	</g>
	<g>
		<path class="st49" d="M35.6,381.3L8.5,341c-1.6-2.4-1-5.8,1.4-7.4L25.6,323c2.4-1.6,5.8-1,7.4,1.4l27.1,40.3
			c1.6,2.4,1,5.8-1.4,7.4l-15.7,10.6C40.6,384.4,37.3,383.8,35.6,381.3z"/>
		<path class="st50" d="M39.7,379.6l-28-41.6c-1.4-2.1-0.8-4.9,1.2-6.3l13.3-9c2.1-1.4,4.9-0.8,6.3,1.2l28,41.6
			c1.4,2.1,0.8,4.9-1.2,6.3l-13.3,9C43.9,382.2,41.1,381.7,39.7,379.6z"/>
	</g>
	<g>
		<path class="st57" d="M241.7,529.1l-8.9-13.3c-2.2-3.3-1.4-7.9,2-10.1l13.1-8.8c3.3-2.2,7.9-1.4,10.1,2l8.9,13.3
			c2.2,3.3,1.4,7.9-2,10.1l-13.1,8.8C248.5,533.3,243.9,532.4,241.7,529.1z"/>
		<path class="st58" d="M244.1,527.5l-8.9-13.3c-2.2-3.3-1.4-7.9,2-10.1l10.6-7.1c3.3-2.2,7.9-1.4,10.1,2l8.9,13.3
			c2.2,3.3,1.4,7.9-2,10.1l-10.6,7.1C250.8,531.7,246.3,530.8,244.1,527.5z"/>
	</g>
	<g>
		<path class="st59" d="M143.9,594.5l-15.4-22.8c-2.2-3.3-1.4-7.9,2-10.1l22.6-15.2c3.3-2.2,7.9-1.4,10.1,2l15.4,22.8
			c2.2,3.3,1.4,7.9-2,10.1l-22.6,15.2C150.7,598.7,146.2,597.8,143.9,594.5z"/>
		<path class="st60" d="M147.2,592.3l-15.4-22.8c-2.2-3.3-1.4-7.9,2-10.1l19.1-12.9c3.3-2.2,7.9-1.4,10.1,2l15.4,22.8
			c2.2,3.3,1.4,7.9-2,10.1l-19.1,12.9C154,596.6,149.4,595.7,147.2,592.3z"/>
	</g>
	<g>
		<path class="st53" d="M263.8,596.6c0,0,2.8-2,5.8-4c2-1.3,3.4-3.6,2.1-5.6c-0.9-1.4-4.6-7.6-4.6-7.6c-1.7-2.5-1-5.8,1.5-7.5
			l5.7-3.8c2.5-1.7,5.8-1,7.5,1.5l9.9,14.8l3.8,5.7c1.7,2.5,1,5.8-1.5,7.5l-5.7,3.8l-14.8,9.9c-2.5,1.7-5.8,1-7.5-1.5l-3.8-5.7
			C260.7,601.6,261.4,598.2,263.8,596.6z"/>
		<path class="st54" d="M266.9,596.3c0,0,2.5-1.8,5.3-3.6c1.8-1.2,3.1-3.3,1.9-5.2c-0.8-1.3-4.2-7-4.2-7c-1.5-2.3-0.9-5.4,1.3-6.9
			l5.2-3.5c2.3-1.5,5.3-0.9,6.9,1.4l9.1,13.6l3.5,5.2c1.5,2.3,0.9,5.4-1.3,6.9l-5.2,3.5l-13.5,9.1c-2.3,1.5-5.3,0.9-6.9-1.4
			l-3.5-5.2C264,600.9,264.6,597.8,266.9,596.3z"/>
	</g>
	<g>
		<path class="st49" d="M84.4,638.3l-12-17.8c-1.6-2.4-1-5.8,1.4-7.4l4.5-3c2.4-1.6,5.8-1,7.4,1.4l12,17.8c1.6,2.4,1,5.8-1.4,7.4
			l-4.5,3C89.4,641.4,86.1,640.8,84.4,638.3z"/>
		<path class="st50" d="M86.8,637.7l-12.9-19.1c-1.4-2.1-0.8-4.9,1.2-6.3l3.8-2.5c2.1-1.4,4.9-0.8,6.3,1.2l12.9,19.1
			c1.4,2.1,0.8,4.9-1.2,6.3l-3.8,2.5C91,640.3,88.2,639.8,86.8,637.7z"/>
	</g>
	<g>
		<path class="st51" d="M184.3,675.3l-22.6-33.5c-2.2-3.3-1.4-7.9,2-10.1l33.2-22.4c3.3-2.2,7.9-1.4,10.1,2l22.6,33.5
			c2.2,3.3,1.4,7.9-2,10.1l-33.2,22.4C191,679.5,186.5,678.6,184.3,675.3z"/>
		<path class="st52" d="M188.5,672.4l-22.6-33.5c-2.2-3.3-1.4-7.9,2-10.1l28.7-19.3c3.3-2.2,7.9-1.4,10.1,2l22.6,33.5
			c2.2,3.3,1.4,7.9-2,10.1l-28.7,19.3C195.3,676.7,190.7,675.8,188.5,672.4z"/>
	</g>
</g>
<g id="Capa_9">
</g>
<g id="Capa_10">
</g>
<g id="Capa_11">
</g>
</svg>
